<svg width="13" height="14" viewBox="0 0 13 14" fill="none" xmlns="http://www.w3.org/2000/svg">
<path d="M4.71224 3.11287L3.70765 1.01074C3.5113 0.599868 3.01022 0.413328 2.59778 0.626732C1.78627 1.04662 0.562756 1.80452 0.181764 2.71346C-0.409658 4.12441 0.794375 7.76248 2.71608 10.0317C4.63784 12.3009 7.94753 13.9924 9.51863 13.7384C10.5306 13.5748 11.5655 12.5944 12.167 11.9265C12.4728 11.587 12.3872 11.0805 12.0072 10.8109L10.0635 9.43178C9.69483 9.17016 9.17965 9.22518 8.88641 9.5575L8.23298 10.298C7.95019 10.6185 7.46095 10.6789 7.11789 10.4112C6.56533 9.97998 5.71221 9.24379 4.8502 8.22594C3.9883 7.20821 3.41324 6.25806 3.08747 5.65218C2.88516 5.27592 3.05029 4.8325 3.43859 4.63646L4.3352 4.1838C4.73784 3.98052 4.90287 3.51176 4.71224 3.11287Z" fill="white"/>
</svg>
